<svg width="272" height="388" viewBox="0 0 272 388" fill="none" xmlns="http://www.w3.org/2000/svg">
<path d="M237.975 6.85032L237.917 0.269468L244.355 0.211914L244.414 6.79277L237.975 6.85032Z" fill="#B5B5B5"/>
<path d="M238.187 30.3948L238.13 23.9601L244.568 23.9026L244.626 30.3372L238.187 30.3948Z" fill="#B5B5B5"/>
<path d="M238.398 54.0862L238.34 47.6515L244.779 47.594L244.837 54.0286L238.398 54.0862Z" fill="#B5B5B5"/>
<path d="M214.065 0.482603L220.504 0.425049L220.563 7.0059L214.124 7.06346L214.065 0.482603Z" fill="#B5B5B5"/>
<path d="M190.358 0.694604L196.943 0.635742L197.002 7.2166L190.417 7.27546L190.358 0.694604Z" fill="#B5B5B5"/>
<path d="M166.651 0.906518L173.236 0.847656L173.295 7.42851L166.71 7.48737L166.651 0.906518Z" fill="#B5B5B5"/>
<path d="M143.09 1.11712L149.529 1.05957L149.588 7.64042L143.149 7.69798L143.09 1.11712Z" fill="#B5B5B5"/>
<path d="M119.383 1.32904L125.822 1.27148L125.881 7.85234L119.442 7.90989L119.383 1.32904Z" fill="#B5B5B5"/>
<path d="M214.276 24.1733L220.715 24.1157L220.772 30.5503L214.334 30.6079L214.276 24.1733Z" fill="#B5B5B5"/>
<path d="M190.569 24.3853L197.154 24.3264L197.212 30.761L190.627 30.8199L190.569 24.3853Z" fill="#B5B5B5"/>
<path d="M166.862 24.5972L173.447 24.5383L173.505 30.9729L166.92 31.0318L166.862 24.5972Z" fill="#B5B5B5"/>
<path d="M143.303 24.8078L149.742 24.7502L149.8 31.1849L143.361 31.2424L143.303 24.8078Z" fill="#B5B5B5"/>
<path d="M119.596 25.0197L126.035 24.9622L126.093 31.3968L119.654 31.4543L119.596 25.0197Z" fill="#B5B5B5"/>
<path d="M214.487 47.8649L220.926 47.8074L220.983 54.242L214.544 54.2995L214.487 47.8649Z" fill="#B5B5B5"/>
<path d="M190.782 48.0767L197.367 48.0178L197.425 54.4524L190.84 54.5113L190.782 48.0767Z" fill="#B5B5B5"/>
<path d="M167.075 48.2886L173.66 48.2297L173.718 54.6643L167.133 54.7232L167.075 48.2886Z" fill="#B5B5B5"/>
<path d="M143.514 48.4992L149.953 48.4417L150.011 54.8763L143.572 54.9338L143.514 48.4992Z" fill="#B5B5B5"/>
<path d="M119.807 48.7111L126.246 48.6536L126.304 55.0882L119.865 55.1457L119.807 48.7111Z" fill="#B5B5B5"/>
<path d="M95.6784 1.54095L102.117 1.4834L102.176 8.06425L95.7372 8.12181L95.6784 1.54095Z" fill="#B5B5B5"/>
<path d="M71.9715 1.75271L78.5566 1.69385L78.6155 8.2747L72.0303 8.33356L71.9715 1.75271Z" fill="#B5B5B5"/>
<path d="M48.2664 1.96462L54.8516 1.90576L54.9104 8.48661L48.3252 8.54548L48.2664 1.96462Z" fill="#B5B5B5"/>
<path d="M24.7038 2.17523L31.1426 2.11768L31.2014 8.69853L24.7626 8.75608L24.7038 2.17523Z" fill="#B5B5B5"/>
<path d="M95.8893 25.2316L102.328 25.1741L102.386 31.6087L95.9468 31.6662L95.8893 25.2316Z" fill="#B5B5B5"/>
<path d="M72.1844 25.4434L78.7695 25.3845L78.827 31.8191L72.2419 31.878L72.1844 25.4434Z" fill="#B5B5B5"/>
<path d="M48.4774 25.6553L55.0625 25.5964L55.12 32.031L48.5349 32.0899L48.4774 25.6553Z" fill="#B5B5B5"/>
<path d="M0.998681 2.38714L7.4375 2.32959L7.49632 8.91044L1.0575 8.968L0.998681 2.38714Z" fill="#B5B5B5"/>
<path d="M96.1022 48.923L102.541 48.8655L102.599 55.3001L96.1597 55.3576L96.1022 48.923Z" fill="#B5B5B5"/>
<path d="M261.477 0.0588619L268.062 0L268.121 6.58085L261.536 6.63971L261.477 0.0588619Z" fill="#B5B5B5"/>
<path d="M261.688 23.7495L268.273 23.6907L268.331 30.1253L261.746 30.1841L261.688 23.7495Z" fill="#B5B5B5"/>
<path d="M261.901 47.4409L268.486 47.3821L268.544 53.8167L261.959 53.8756L261.901 47.4409Z" fill="#B5B5B5"/>
<path d="M238.61 77.7773L238.551 71.1965L244.99 71.1389L245.049 77.7198L238.61 77.7773Z" fill="#B5B5B5"/>
<path d="M238.821 101.468L238.762 94.8871L245.201 94.8296L245.26 101.41L238.821 101.468Z" fill="#B5B5B5"/>
<path d="M214.698 71.4098L221.137 71.3523L221.196 77.9331L214.757 77.9907L214.698 71.4098Z" fill="#B5B5B5"/>
<path d="M190.993 71.6216L197.578 71.5627L197.637 78.1436L191.052 78.2025L190.993 71.6216Z" fill="#B5B5B5"/>
<path d="M167.284 71.8335L173.869 71.7747L173.928 78.3555L167.343 78.4144L167.284 71.8335Z" fill="#B5B5B5"/>
<path d="M167.284 71.8335L173.869 71.7747L173.928 78.3555L167.343 78.4144L167.284 71.8335Z" fill="#B5B5B5"/>
<path d="M143.725 72.0441L150.164 71.9866L150.223 78.5674L143.784 78.625L143.725 72.0441Z" fill="#B5B5B5"/>
<path d="M214.911 95.1005L221.35 95.043L221.408 101.624L214.97 101.681L214.911 95.1005Z" fill="#B5B5B5"/>
<path d="M262.112 70.9859L268.697 70.927L268.756 77.5079L262.171 77.5667L262.112 70.9859Z" fill="#B5B5B5"/>
<path d="M262.323 94.6765L268.908 94.6177L268.967 101.199L262.382 101.257L262.323 94.6765Z" fill="#B5B5B5"/>
<path d="M239.033 125.013L238.975 118.579L245.414 118.521L245.472 124.956L239.033 125.013Z" fill="#B5B5B5"/>
<path d="M239.244 148.704L239.186 142.269L245.625 142.212L245.683 148.647L239.244 148.704Z" fill="#B5B5B5"/>
<path d="M215.122 118.792L221.561 118.734L221.618 125.169L215.179 125.227L215.122 118.792Z" fill="#B5B5B5"/>
<path d="M215.333 142.483L221.771 142.425L221.829 148.86L215.39 148.917L215.333 142.483Z" fill="#B5B5B5"/>
<path d="M262.534 118.368L269.119 118.309L269.177 124.744L262.592 124.803L262.534 118.368Z" fill="#B5B5B5"/>
<path d="M262.747 142.059L269.332 142L269.39 148.435L262.804 148.493L262.747 142.059Z" fill="#B5B5B5"/>
<path d="M239.457 172.395L239.399 165.961L245.838 165.903L245.895 172.338L239.457 172.395Z" fill="#B5B5B5"/>
<path d="M239.667 196.087L239.608 189.506L246.047 189.448L246.106 196.029L239.667 196.087Z" fill="#B5B5B5"/>
<path d="M215.546 166.174L221.984 166.116L222.042 172.551L215.603 172.609L215.546 166.174Z" fill="#B5B5B5"/>
<path d="M215.757 189.719L222.195 189.661L222.254 196.242L215.815 196.3L215.757 189.719Z" fill="#B5B5B5"/>
<path d="M262.958 165.75L269.543 165.691L269.6 172.126L263.015 172.185L262.958 165.75Z" fill="#B5B5B5"/>
<path d="M263.169 189.295L269.754 189.236L269.813 195.817L263.228 195.876L263.169 189.295Z" fill="#B5B5B5"/>
<path d="M239.88 219.777L239.821 213.196L246.26 213.139L246.319 219.72L239.88 219.777Z" fill="#B5B5B5"/>
<path d="M240.089 243.323L240.032 236.888L246.471 236.83L246.528 243.265L240.089 243.323Z" fill="#B5B5B5"/>
<path d="M215.967 213.41L222.406 213.352L222.465 219.933L216.026 219.99L215.967 213.41Z" fill="#B5B5B5"/>
<path d="M216.178 237.101L222.617 237.043L222.675 243.478L216.236 243.536L216.178 237.101Z" fill="#B5B5B5"/>
<path d="M263.38 212.986L269.965 212.927L270.024 219.508L263.439 219.567L263.38 212.986Z" fill="#B5B5B5"/>
<path d="M263.593 236.677L270.178 236.618L270.235 243.053L263.65 243.112L263.593 236.677Z" fill="#B5B5B5"/>
<path d="M240.302 267.013L240.245 260.579L246.684 260.521L246.741 266.956L240.302 267.013Z" fill="#B5B5B5"/>
<path d="M240.513 290.704L240.454 284.123L246.893 284.066L246.951 290.647L240.513 290.704Z" fill="#B5B5B5"/>
<path d="M216.391 260.792L222.83 260.734L222.888 267.169L216.449 267.227L216.391 260.792Z" fill="#B5B5B5"/>
<path d="M263.804 260.368L270.389 260.309L270.446 266.744L263.861 266.803L263.804 260.368Z" fill="#B5B5B5"/>
<path d="M264.014 283.913L270.6 283.854L270.658 290.435L264.073 290.494L264.014 283.913Z" fill="#B5B5B5"/>
<path d="M240.725 314.396L240.667 307.815L247.105 307.758L247.164 314.338L240.725 314.396Z" fill="#B5B5B5"/>
<path d="M240.935 337.94L240.878 331.506L247.316 331.448L247.374 337.883L240.935 337.94Z" fill="#B5B5B5"/>
<path d="M264.225 307.605L270.811 307.546L270.869 314.127L264.284 314.185L264.225 307.605Z" fill="#B5B5B5"/>
<path d="M264.438 331.295L271.023 331.236L271.081 337.671L264.496 337.73L264.438 331.295Z" fill="#B5B5B5"/>
<path d="M264.649 354.987L271.234 354.928L271.292 361.362L264.707 361.421L264.649 354.987Z" fill="#B5B5B5"/>
<path d="M264.86 378.531L271.445 378.472L271.504 385.053L264.919 385.111L264.86 378.531Z" fill="#B5B5B5"/>
</svg>
