<svg width="562" height="243" viewBox="0 0 562 243" fill="none" xmlns="http://www.w3.org/2000/svg">
<path d="M177.066 309.648C179.872 305.963 181.815 301.896 184.262 298.211C192.682 285.631 235.07 238.677 284.439 265.299C296.673 271.907 305.165 283.026 317.615 290.396C399.729 338.748 509.621 320.449 563.164 249.606C616.707 178.762 593.534 82.1859 511.492 33.8344C429.379 -14.4537 302.79 -18.5835 268.463 71.4482C259.755 94.385 257.596 134.922 242.699 163.068C219.382 207.099 157.131 191.978 131.151 183.019C88.0433 168.151 40.4737 174.632 14.5659 208.942C-14.1486 246.937 1.39606 305.581 45.3674 331.505C89.4107 357.428 148.351 347.643 177.066 309.648Z" fill="#FFD3F6"/>
</svg>
