<svg width="45" height="36" viewBox="0 0 45 36" fill="none" xmlns="http://www.w3.org/2000/svg">
<path d="M36.9955 3.34999C35.9955 2.04999 34.9455 1.29999 33.8455 1.1C32.6455 0.899998 31.6455 1.1 30.8455 1.7C29.9455 2.29999 29.4455 3.2 29.3455 4.4C29.2455 5.59999 29.7455 6.89999 30.8455 8.29999C32.5455 10.4 33.7455 12.6 34.4455 14.9C35.0455 17.1 35.3455 19.1 35.3455 20.9L35.9455 17.45C33.1455 17.45 30.8955 18.3 29.1955 20C27.3955 21.6 26.4955 23.75 26.4955 26.45C26.4955 28.95 27.2955 31.05 28.8955 32.75C30.4955 34.35 32.6455 35.15 35.3455 35.15C38.0455 35.15 40.2455 34.2 41.9455 32.3C43.5455 30.4 44.3455 27.7 44.3455 24.2C44.3455 22.1 44.1455 19.9 43.7455 17.6C43.2455 15.2 42.4955 12.8 41.4955 10.4C40.3955 7.99999 38.8955 5.64999 36.9955 3.34999ZM11.1955 3.34999C10.1955 2.04999 9.1455 1.29999 8.0455 1.1C6.8455 0.899998 5.84551 1.1 5.04551 1.7C4.14551 2.29999 3.64551 3.2 3.5455 4.4C3.44551 5.59999 3.94551 6.89999 5.04551 8.29999C6.74551 10.4 7.94551 12.6 8.64551 14.9C9.24551 17.1 9.54551 19.1 9.54551 20.9L10.1455 17.45C7.3455 17.45 5.0955 18.3 3.39551 20C1.59551 21.6 0.695505 23.75 0.695505 26.45C0.695505 28.95 1.4955 31.05 3.09551 32.75C4.69551 34.35 6.84551 35.15 9.54551 35.15C12.2455 35.15 14.4455 34.2 16.1455 32.3C17.7455 30.4 18.5455 27.7 18.5455 24.2C18.5455 22.1 18.3455 19.9 17.9455 17.6C17.4455 15.2 16.6955 12.8 15.6955 10.4C14.5955 7.99999 13.0955 5.64999 11.1955 3.34999Z" fill="#E94FCA"/>
</svg>
