<svg width="45" height="36" viewBox="0 0 45 36" fill="none" xmlns="http://www.w3.org/2000/svg">
<path d="M8.00449 3.34999C9.00449 2.04999 10.0545 1.29999 11.1545 1.1C12.3545 0.899998 13.3545 1.1 14.1545 1.7C15.0545 2.29999 15.5545 3.2 15.6545 4.4C15.7545 5.59999 15.2545 6.89999 14.1545 8.29999C12.4545 10.4 11.2545 12.6 10.5545 14.9C9.95449 17.1 9.65449 19.1 9.65449 20.9L9.05449 17.45C11.8545 17.45 14.1045 18.3 15.8045 20C17.6045 21.6 18.5045 23.75 18.5045 26.45C18.5045 28.95 17.7045 31.05 16.1045 32.75C14.5045 34.35 12.3545 35.15 9.65449 35.15C6.95449 35.15 4.75449 34.2 3.05449 32.3C1.45449 30.4 0.654493 27.7 0.654493 24.2C0.654493 22.1 0.854493 19.9 1.25449 17.6C1.75449 15.2 2.50449 12.8 3.50449 10.4C4.60449 7.99999 6.10449 5.64999 8.00449 3.34999ZM33.8045 3.34999C34.8045 2.04999 35.8545 1.29999 36.9545 1.1C38.1545 0.899998 39.1545 1.1 39.9545 1.7C40.8545 2.29999 41.3545 3.2 41.4545 4.4C41.5545 5.59999 41.0545 6.89999 39.9545 8.29999C38.2545 10.4 37.0545 12.6 36.3545 14.9C35.7545 17.1 35.4545 19.1 35.4545 20.9L34.8545 17.45C37.6545 17.45 39.9045 18.3 41.6045 20C43.4045 21.6 44.3045 23.75 44.3045 26.45C44.3045 28.95 43.5045 31.05 41.9045 32.75C40.3045 34.35 38.1545 35.15 35.4545 35.15C32.7545 35.15 30.5545 34.2 28.8545 32.3C27.2545 30.4 26.4545 27.7 26.4545 24.2C26.4545 22.1 26.6545 19.9 27.0545 17.6C27.5545 15.2 28.3045 12.8 29.3045 10.4C30.4045 7.99999 31.9045 5.64999 33.8045 3.34999Z" fill="#E94FCA"/>
</svg>
