<svg width="268" height="386" viewBox="0 0 268 386" fill="none" xmlns="http://www.w3.org/2000/svg">
<path d="M236.936 6.58493L236.936 0.00381322L243.375 0.00390625L243.375 6.58502L236.936 6.58493Z" fill="#B5B5B5"/>
<path d="M236.936 30.1301L236.936 23.6952L243.375 23.6953L243.375 30.1302L236.936 30.1301Z" fill="#B5B5B5"/>
<path d="M236.934 53.8215L236.934 47.3866L243.373 47.3867L243.373 53.8216L236.934 53.8215Z" fill="#B5B5B5"/>
<path d="M213.082 0.00381322L219.521 0.00390625L219.521 6.58502L213.082 6.58493L213.082 0.00381322Z" fill="#B5B5B5"/>
<path d="M189.376 0.00185798L195.961 0.00195312L195.961 6.58307L189.375 6.58297L189.376 0.00185798Z" fill="#B5B5B5"/>
<path d="M165.667 0.00185798L172.252 0.00195312L172.252 6.58307L165.666 6.58297L165.667 0.00185798Z" fill="#B5B5B5"/>
<path d="M142.106 0.0018601L148.545 0.00195312L148.545 6.58307L142.106 6.58298L142.106 0.0018601Z" fill="#B5B5B5"/>
<path d="M118.399 0.0018601L124.838 0.00195312L124.838 6.58307L118.399 6.58298L118.399 0.0018601Z" fill="#B5B5B5"/>
<path d="M213.08 23.6952L219.52 23.6953L219.519 30.1302L213.08 30.1301L213.08 23.6952Z" fill="#B5B5B5"/>
<path d="M189.374 23.6952L195.959 23.6953L195.959 30.1302L189.373 30.1301L189.374 23.6952Z" fill="#B5B5B5"/>
<path d="M165.667 23.6933L172.252 23.6934L172.252 30.1282L165.666 30.1281L165.667 23.6933Z" fill="#B5B5B5"/>
<path d="M142.106 23.6933L148.545 23.6934L148.545 30.1282L142.106 30.1281L142.106 23.6933Z" fill="#B5B5B5"/>
<path d="M118.397 23.6933L124.836 23.6934L124.836 30.1282L118.397 30.1281L118.397 23.6933Z" fill="#B5B5B5"/>
<path d="M213.08 47.3866L219.52 47.3867L219.519 53.8216L213.08 53.8215L213.08 47.3866Z" fill="#B5B5B5"/>
<path d="M189.374 47.3866L195.959 47.3867L195.959 53.8216L189.373 53.8215L189.374 47.3866Z" fill="#B5B5B5"/>
<path d="M165.667 47.3866L172.252 47.3867L172.252 53.8216L165.666 53.8215L165.667 47.3866Z" fill="#B5B5B5"/>
<path d="M142.104 47.3866L148.543 47.3867L148.543 53.8216L142.104 53.8215L142.104 47.3866Z" fill="#B5B5B5"/>
<path d="M118.397 47.3866L124.836 47.3867L124.836 53.8216L118.397 53.8215L118.397 47.3866Z" fill="#B5B5B5"/>
<path d="M94.6898 0.0018601L101.129 0.00195312L101.129 6.58307L94.6897 6.58298L94.6898 0.0018601Z" fill="#B5B5B5"/>
<path d="M70.983 0.00185798L77.5684 0.00195312L77.5683 6.58307L70.9829 6.58297L70.983 0.00185798Z" fill="#B5B5B5"/>
<path d="M47.2759 -9.51434e-05L53.8613 0L53.8612 6.58112L47.2758 6.58102L47.2759 -9.51434e-05Z" fill="#B5B5B5"/>
<path d="M23.7152 -9.30289e-05L30.1543 0L30.1542 6.58112L23.7151 6.58102L23.7152 -9.30289e-05Z" fill="#B5B5B5"/>
<path d="M94.6898 23.6933L101.129 23.6934L101.129 30.1282L94.6897 30.1281L94.6898 23.6933Z" fill="#B5B5B5"/>
<path d="M70.983 23.6933L77.5684 23.6934L77.5683 30.1282L70.9829 30.1281L70.983 23.6933Z" fill="#B5B5B5"/>
<path d="M47.2759 23.6933L53.8613 23.6934L53.8612 30.1282L47.2758 30.1281L47.2759 23.6933Z" fill="#B5B5B5"/>
<path d="M0.00623608 -9.30293e-05L6.44531 0L6.44522 6.58112L0.00614099 6.58102L0.00623608 -9.30293e-05Z" fill="#B5B5B5"/>
<path d="M94.6898 47.3847L101.129 47.3848L101.129 53.8196L94.6897 53.8195L94.6898 47.3847Z" fill="#B5B5B5"/>
<path d="M260.497 0.00381111L267.082 0.00390625L267.082 6.58502L260.497 6.58493L260.497 0.00381111Z" fill="#B5B5B5"/>
<path d="M260.497 23.6952L267.082 23.6953L267.082 30.1302L260.497 30.1301L260.497 23.6952Z" fill="#B5B5B5"/>
<path d="M260.497 47.3886L267.082 47.3887L267.082 53.8235L260.497 53.8234L260.497 47.3886Z" fill="#B5B5B5"/>
<path d="M236.934 77.5146L236.934 70.9335L243.373 70.9336L243.373 77.5147L236.934 77.5146Z" fill="#B5B5B5"/>
<path d="M236.934 101.206L236.934 94.6249L243.373 94.625L243.373 101.206L236.934 101.206Z" fill="#B5B5B5"/>
<path d="M213.08 70.9335L219.52 70.9336L219.519 77.5147L213.08 77.5146L213.08 70.9335Z" fill="#B5B5B5"/>
<path d="M189.374 70.9335L195.959 70.9336L195.959 77.5147L189.373 77.5146L189.374 70.9335Z" fill="#B5B5B5"/>
<path d="M165.665 70.9315L172.25 70.9316L172.25 77.5128L165.664 77.5127L165.665 70.9315Z" fill="#B5B5B5"/>
<path d="M165.665 70.9315L172.25 70.9316L172.25 77.5128L165.664 77.5127L165.665 70.9315Z" fill="#B5B5B5"/>
<path d="M142.104 70.9315L148.543 70.9316L148.543 77.5128L142.104 77.5127L142.104 70.9315Z" fill="#B5B5B5"/>
<path d="M213.08 94.6249L219.52 94.625L219.519 101.206L213.08 101.206L213.08 94.6249Z" fill="#B5B5B5"/>
<path d="M260.495 70.9335L267.08 70.9336L267.08 77.5147L260.495 77.5146L260.495 70.9335Z" fill="#B5B5B5"/>
<path d="M260.495 94.6249L267.08 94.625L267.08 101.206L260.495 101.206L260.495 94.6249Z" fill="#B5B5B5"/>
<path d="M236.934 124.753L236.934 118.318L243.373 118.318L243.373 124.753L236.934 124.753Z" fill="#B5B5B5"/>
<path d="M236.934 148.445L236.934 142.01L243.373 142.01L243.373 148.445L236.934 148.445Z" fill="#B5B5B5"/>
<path d="M213.08 118.316L219.52 118.316L219.519 124.751L213.08 124.751L213.08 118.316Z" fill="#B5B5B5"/>
<path d="M213.08 142.008L219.52 142.008L219.519 148.443L213.08 148.443L213.08 142.008Z" fill="#B5B5B5"/>
<path d="M260.495 118.318L267.08 118.318L267.08 124.753L260.495 124.753L260.495 118.318Z" fill="#B5B5B5"/>
<path d="M260.495 142.01L267.08 142.01L267.08 148.445L260.495 148.445L260.495 142.01Z" fill="#B5B5B5"/>
<path d="M236.934 172.136L236.934 165.701L243.373 165.701L243.373 172.136L236.934 172.136Z" fill="#B5B5B5"/>
<path d="M236.932 195.829L236.932 189.248L243.371 189.248L243.371 195.829L236.932 195.829Z" fill="#B5B5B5"/>
<path d="M213.079 165.701L219.518 165.701L219.517 172.136L213.078 172.136L213.079 165.701Z" fill="#B5B5B5"/>
<path d="M213.079 189.246L219.518 189.246L219.517 195.827L213.078 195.827L213.079 189.246Z" fill="#B5B5B5"/>
<path d="M260.495 165.701L267.08 165.701L267.08 172.136L260.495 172.136L260.495 165.701Z" fill="#B5B5B5"/>
<path d="M260.495 189.248L267.08 189.248L267.08 195.829L260.495 195.829L260.495 189.248Z" fill="#B5B5B5"/>
<path d="M236.932 219.52L236.932 212.939L243.371 212.939L243.371 219.521L236.932 219.52Z" fill="#B5B5B5"/>
<path d="M236.932 243.066L236.932 236.631L243.371 236.631L243.371 243.066L236.932 243.066Z" fill="#B5B5B5"/>
<path d="M213.079 212.939L219.518 212.939L219.517 219.521L213.078 219.52L213.079 212.939Z" fill="#B5B5B5"/>
<path d="M213.079 236.631L219.518 236.631L219.517 243.066L213.078 243.066L213.079 236.631Z" fill="#B5B5B5"/>
<path d="M260.493 212.939L267.078 212.939L267.078 219.521L260.493 219.52L260.493 212.939Z" fill="#B5B5B5"/>
<path d="M260.493 236.631L267.078 236.631L267.078 243.066L260.493 243.066L260.493 236.631Z" fill="#B5B5B5"/>
<path d="M236.932 266.757L236.932 260.322L243.371 260.322L243.371 266.757L236.932 266.757Z" fill="#B5B5B5"/>
<path d="M236.932 290.45L236.932 283.869L243.371 283.869L243.371 290.45L236.932 290.45Z" fill="#B5B5B5"/>
<path d="M213.079 260.322L219.518 260.322L219.517 266.757L213.078 266.757L213.079 260.322Z" fill="#B5B5B5"/>
<path d="M260.493 260.324L267.078 260.324L267.078 266.759L260.493 266.759L260.493 260.324Z" fill="#B5B5B5"/>
<path d="M260.493 283.869L267.078 283.869L267.078 290.45L260.493 290.45L260.493 283.869Z" fill="#B5B5B5"/>
<path d="M236.932 314.142L236.932 307.56L243.371 307.561L243.371 314.142L236.932 314.142Z" fill="#B5B5B5"/>
<path d="M236.93 337.689L236.93 331.254L243.369 331.254L243.369 337.689L236.93 337.689Z" fill="#B5B5B5"/>
<path d="M260.493 307.562L267.078 307.562L267.078 314.144L260.493 314.144L260.493 307.562Z" fill="#B5B5B5"/>
<path d="M260.493 331.254L267.078 331.254L267.078 337.689L260.493 337.689L260.493 331.254Z" fill="#B5B5B5"/>
<path d="M260.491 354.945L267.076 354.945L267.076 361.38L260.491 361.38L260.491 354.945Z" fill="#B5B5B5"/>
<path d="M260.491 378.49L267.076 378.49L267.076 385.071L260.491 385.071L260.491 378.49Z" fill="#B5B5B5"/>
</svg>
