<svg width="386" height="269" viewBox="0 0 386 269" fill="none" xmlns="http://www.w3.org/2000/svg">
<path d="M7.51276 31.1441H0.931641V24.7051H7.51276V31.1441Z" fill="#B5B5B5"/>
<path d="M31.0579 31.1441H24.623V24.7051H31.0579V31.1441Z" fill="#B5B5B5"/>
<path d="M54.7513 31.1441H48.3164V24.7051H54.7513V31.1441Z" fill="#B5B5B5"/>
<path d="M0.931641 54.9977V48.5586H7.51276V54.9977H0.931641Z" fill="#B5B5B5"/>
<path d="M0.931641 78.7045V72.1191H7.51276V78.7045H0.931641Z" fill="#B5B5B5"/>
<path d="M0.931641 102.414V95.8281H7.51276V102.414H0.931641Z" fill="#B5B5B5"/>
<path d="M0.931641 125.974V119.535H7.51276V125.974H0.931641Z" fill="#B5B5B5"/>
<path d="M0.931641 149.681V143.242H7.51276V149.681H0.931641Z" fill="#B5B5B5"/>
<path d="M24.623 54.9977V48.5586H31.0579V54.9977H24.623Z" fill="#B5B5B5"/>
<path d="M24.623 78.7045V72.1191H31.0579V78.7045H24.623Z" fill="#B5B5B5"/>
<path d="M24.623 102.414V95.8281H31.0579V102.414H24.623Z" fill="#B5B5B5"/>
<path d="M24.623 125.974V119.535H31.0579V125.974H24.623Z" fill="#B5B5B5"/>
<path d="M24.623 149.681V143.242H31.0579V149.681H24.623Z" fill="#B5B5B5"/>
<path d="M48.3164 54.9977V48.5586H54.7513V54.9977H48.3164Z" fill="#B5B5B5"/>
<path d="M48.3164 78.7045V72.1191H54.7513V78.7045H48.3164Z" fill="#B5B5B5"/>
<path d="M48.3164 102.414V95.8281H54.7513V102.414H48.3164Z" fill="#B5B5B5"/>
<path d="M48.3164 125.974V119.535H54.7513V125.974H48.3164Z" fill="#B5B5B5"/>
<path d="M48.3164 149.681V143.242H54.7513V149.681H48.3164Z" fill="#B5B5B5"/>
<path d="M0.931641 173.39V166.951H7.51276V173.39H0.931641Z" fill="#B5B5B5"/>
<path d="M0.931641 197.097V190.512H7.51276V197.097H0.931641Z" fill="#B5B5B5"/>
<path d="M0.931641 220.804V214.219H7.51276V220.804H0.931641Z" fill="#B5B5B5"/>
<path d="M0.931641 244.365V237.926H7.51276V244.365H0.931641Z" fill="#B5B5B5"/>
<path d="M24.623 173.39V166.951H31.0579V173.39H24.623Z" fill="#B5B5B5"/>
<path d="M24.623 197.097V190.512H31.0579V197.097H24.623Z" fill="#B5B5B5"/>
<path d="M24.623 220.804V214.219H31.0579V220.804H24.623Z" fill="#B5B5B5"/>
<path d="M0.931641 268.074V261.635H7.51276V268.074H0.931641Z" fill="#B5B5B5"/>
<path d="M48.3164 173.39V166.951H54.7513V173.39H48.3164Z" fill="#B5B5B5"/>
<path d="M0.931641 7.58345V0.998047H7.51276V7.58345H0.931641Z" fill="#B5B5B5"/>
<path d="M24.623 7.58345V0.998047H31.0579V7.58345H24.623Z" fill="#B5B5B5"/>
<path d="M48.3164 7.58345V0.998047H54.7513V7.58345H48.3164Z" fill="#B5B5B5"/>
<path d="M78.4424 31.1441H71.8613V24.7051H78.4424V31.1441Z" fill="#B5B5B5"/>
<path d="M102.134 31.1441H95.5527V24.7051H102.134V31.1441Z" fill="#B5B5B5"/>
<path d="M71.8613 54.9977V48.5586H78.4424V54.9977H71.8613Z" fill="#B5B5B5"/>
<path d="M71.8613 78.7045V72.1191H78.4424V78.7045H71.8613Z" fill="#B5B5B5"/>
<path d="M71.8613 102.414V95.8281H78.4424V102.414H71.8613Z" fill="#B5B5B5"/>
<path d="M71.8613 102.414V95.8281H78.4424V102.414H71.8613Z" fill="#B5B5B5"/>
<path d="M71.8613 125.974V119.535H78.4424V125.974H71.8613Z" fill="#B5B5B5"/>
<path d="M95.5527 54.9977V48.5586H102.134V54.9977H95.5527Z" fill="#B5B5B5"/>
<path d="M71.8613 7.58345V0.998047H78.4424V7.58345H71.8613Z" fill="#B5B5B5"/>
<path d="M95.5527 7.58345V0.998047H102.134V7.58345H95.5527Z" fill="#B5B5B5"/>
<path d="M125.681 31.1441H119.246V24.7051H125.681V31.1441Z" fill="#B5B5B5"/>
<path d="M149.372 31.1441H142.938V24.7051H149.372V31.1441Z" fill="#B5B5B5"/>
<path d="M119.246 54.9977V48.5586H125.681V54.9977H119.246Z" fill="#B5B5B5"/>
<path d="M142.938 54.9977V48.5586H149.372V54.9977H142.938Z" fill="#B5B5B5"/>
<path d="M119.246 7.58345V0.998047H125.681V7.58345H119.246Z" fill="#B5B5B5"/>
<path d="M142.938 7.58345V0.998047H149.372V7.58345H142.938Z" fill="#B5B5B5"/>
<path d="M173.064 31.1441H166.629V24.7051H173.064V31.1441Z" fill="#B5B5B5"/>
<path d="M196.757 31.1441H190.176V24.7051H196.757V31.1441Z" fill="#B5B5B5"/>
<path d="M166.629 54.9977V48.5586H173.064V54.9977H166.629Z" fill="#B5B5B5"/>
<path d="M190.176 54.9977V48.5586H196.757V54.9977H190.176Z" fill="#B5B5B5"/>
<path d="M166.629 7.58345V0.998047H173.064V7.58345H166.629Z" fill="#B5B5B5"/>
<path d="M190.176 7.58345V0.998047H196.757V7.58345H190.176Z" fill="#B5B5B5"/>
<path d="M220.448 31.1441H213.867V24.7051H220.448V31.1441Z" fill="#B5B5B5"/>
<path d="M243.993 31.1441H237.559V24.7051H243.993V31.1441Z" fill="#B5B5B5"/>
<path d="M213.867 54.9977V48.5586H220.448V54.9977H213.867Z" fill="#B5B5B5"/>
<path d="M237.559 54.9977V48.5586H243.993V54.9977H237.559Z" fill="#B5B5B5"/>
<path d="M213.867 7.58345V0.998047H220.448V7.58345H213.867Z" fill="#B5B5B5"/>
<path d="M237.559 7.58345V0.998047H243.993V7.58345H237.559Z" fill="#B5B5B5"/>
<path d="M267.687 31.1441H261.252V24.7051H267.687V31.1441Z" fill="#B5B5B5"/>
<path d="M291.378 31.1441H284.797V24.7051H291.378V31.1441Z" fill="#B5B5B5"/>
<path d="M261.252 54.9977V48.5586H267.687V54.9977H261.252Z" fill="#B5B5B5"/>
<path d="M261.252 7.58345V0.998047H267.687V7.58345H261.252Z" fill="#B5B5B5"/>
<path d="M284.797 7.58345V0.998047H291.378V7.58345H284.797Z" fill="#B5B5B5"/>
<path d="M315.071 31.1441H308.49V24.7051H315.071V31.1441Z" fill="#B5B5B5"/>
<path d="M338.617 31.1441H332.182V24.7051H338.617V31.1441Z" fill="#B5B5B5"/>
<path d="M308.49 7.58345V0.998047H315.071V7.58345H308.49Z" fill="#B5B5B5"/>
<path d="M332.182 7.58345V0.998047H338.617V7.58345H332.182Z" fill="#B5B5B5"/>
<path d="M355.873 7.58345V0.998047H362.308V7.58345H355.873Z" fill="#B5B5B5"/>
<path d="M379.418 7.58345V0.998047H385.999V7.58345H379.418Z" fill="#B5B5B5"/>
</svg>
