<svg width="1445" height="394" viewBox="0 0 1445 394" fill="none" xmlns="http://www.w3.org/2000/svg">
<mask id="mask0_1760_120" style="mask-type:alpha" maskUnits="userSpaceOnUse" x="-1" y="0" width="1446" height="394">
<rect x="-1" width="1446" height="394" fill="#D9D9D9"/>
</mask>
<g mask="url(#mask0_1760_120)">
<path style="mix-blend-mode:multiply" d="M30.9638 218.149C144.009 271.266 284.759 256.898 404.78 215.724C524.703 174.55 631.772 109.24 747.575 59.7039C863.281 10.1669 995.721 -23.7861 1120.21 3.76234C1224.45 26.8828 1310.87 90.6048 1381.04 161.641C1451.31 232.679 1509.32 312.54 1580.86 382.548C1622.15 422.804 1680.11 462.687 1739.83 448.038" stroke="url(#paint0_linear_1760_120)" stroke-width="2" stroke-miterlimit="10"/>
<path style="mix-blend-mode:multiply" d="M1742.05 450.313C1694.84 463.078 1647.82 442.37 1609.06 413.844C1598.99 406.47 1589.5 398.582 1580.69 390.612C1556.02 368.281 1532.83 344.575 1510.32 320.441C1464.92 271.65 1422.07 220.801 1373.92 173.72C1332.34 132.941 1285.68 94.4589 1233.38 64.7724C1195.34 43.0167 1154.14 26.0027 1109.86 16.0726C1022.36 -3.51806 930.993 6.42896 844.75 32.4645C807.105 43.7529 770.604 58.0865 735.456 73.733C685.426 96.099 636.835 121.166 587.381 144.491C525.98 173.521 464.312 199.6 400.072 218.805C396.682 219.816 393.292 220.827 389.903 221.838C270.039 256.248 132.376 263.359 23.6574 206.204" stroke="url(#paint1_linear_1760_120)" stroke-width="2" stroke-miterlimit="10"/>
<path style="mix-blend-mode:multiply" d="M1744.18 452.586C1697.24 466.481 1649.53 447.761 1609.78 420.787C1599.41 413.845 1589.63 406.301 1580.43 398.675C1554.87 377.289 1530.89 354.183 1507.5 330.562C1460.43 282.797 1416.01 232.541 1366.89 185.799C1324.24 145.357 1276.89 107.042 1224.1 77.2648C1185.57 55.5915 1143.99 38.4874 1099.41 28.3813C1011.23 8.43776 918.996 17.6833 832.549 44.7577C794.9 56.4796 758.49 71.5079 723.434 87.7622C673.396 111.082 624.702 136.755 574.475 159.293C512.108 187.274 449.398 209.875 385.189 225.525C381.801 226.362 378.413 227.17 375.025 227.95C255.319 255.598 120.743 255.451 16.2533 194.258" stroke="url(#paint2_linear_1760_120)" stroke-width="2" stroke-miterlimit="10"/>
<path style="mix-blend-mode:multiply" d="M1746.3 454.861C1699.65 469.885 1651.33 453.155 1610.5 427.733C1599.93 421.135 1589.75 414.021 1580.26 406.74C1553.82 386.214 1528.86 363.793 1504.58 340.684C1455.84 293.945 1410.06 244.284 1359.76 197.878C1316.13 157.775 1268.19 119.628 1214.72 89.758C1175.91 68.0821 1133.93 50.9745 1089.06 40.6924C1000.11 20.4818 907.096 28.9401 820.349 56.9658C782.598 69.2071 746.377 84.9308 711.316 101.792C661.367 125.98 612.667 152.347 561.569 174.096C498.235 201.115 434.581 220.238 370.306 232.246C366.92 232.91 363.534 233.516 360.148 234.064C240.599 254.949 109.109 247.632 8.84971 182.313" stroke="url(#paint3_linear_1760_120)" stroke-width="2" stroke-miterlimit="10"/>
<path style="mix-blend-mode:multiply" d="M1748.43 457.134C1702.16 473.289 1653.14 458.461 1611.32 434.677C1600.35 428.51 1589.88 421.74 1580.09 414.716C1552.67 395.222 1526.82 373.4 1501.76 350.718C1451.26 305.091 1404.01 256.11 1352.63 210.042C1308.02 170.19 1259.41 132.124 1205.35 102.336C1166.24 80.6573 1123.87 63.3729 1078.72 53.0015C988.984 32.4372 895.101 40.194 808.149 69.2585C770.394 81.9334 734.264 98.4383 699.295 115.907C649.339 140.876 600.633 167.936 548.762 188.899C484.365 214.867 419.668 230.599 355.426 238.965C352.041 239.397 348.656 239.83 345.272 240.263C225.881 254.298 97.4779 239.723 1.44748 170.366" stroke="url(#paint4_linear_1760_120)" stroke-width="2" stroke-miterlimit="10"/>
<path style="mix-blend-mode:multiply" d="M1750.65 459.407C1704.57 476.691 1654.85 463.851 1612.04 441.62C1600.87 435.884 1590.01 429.458 1579.83 422.777C1551.52 404.143 1524.79 383.007 1498.85 360.838C1446.77 316.324 1398.05 267.851 1345.5 222.119C1299.92 182.519 1250.61 144.707 1196.07 114.827C1156.57 93.232 1113.82 75.8574 1068.37 65.3099C977.858 44.3919 883.104 51.4473 795.948 81.5506C758.092 94.6583 722.15 111.859 687.273 129.936C637.309 155.858 588.5 183.525 535.856 203.699C470.589 228.706 404.753 240.96 340.543 245.683C337.16 245.942 333.744 246.172 330.297 246.373C211.063 253.646 85.8449 231.815 -5.95649 158.419" stroke="url(#paint5_linear_1760_120)" stroke-width="2" stroke-miterlimit="10"/>
<path style="mix-blend-mode:multiply" d="M1752.78 461.681C1706.97 480.096 1656.65 469.245 1612.75 448.652C1601.3 443.174 1590.13 437.178 1579.66 430.842C1550.36 413.239 1522.75 392.616 1496.03 370.96C1442.19 327.472 1392 279.592 1338.37 234.198C1291.81 194.936 1241.92 157.206 1186.7 127.32C1146.9 105.722 1103.66 88.3434 1057.92 77.6199C966.83 56.3499 871.107 62.6162 783.844 93.846C745.887 107.3 710.036 125.281 675.154 143.965C625.28 170.755 576.464 199.116 522.95 218.503C456.716 242.547 389.838 251.236 325.66 252.404C322.279 252.432 318.865 252.459 315.419 252.487C196.343 252.997 74.114 223.907 -13.2634 146.475" stroke="url(#paint6_linear_1760_120)" stroke-width="2" stroke-miterlimit="10"/>
<path style="mix-blend-mode:multiply" d="M1754.9 463.954C1709.38 483.498 1658.36 474.635 1613.47 455.594C1601.72 450.547 1590.26 444.983 1579.39 438.903C1549.31 422.161 1520.71 402.223 1493.11 381.08C1437.6 338.617 1386.04 291.333 1331.24 246.274C1283.8 207.352 1233.13 169.788 1177.42 139.898C1137.24 118.297 1093.6 100.828 1047.57 89.9283C955.704 68.3046 859.207 73.8703 771.643 106.051C733.584 120.024 697.922 138.702 663.132 157.993C613.249 185.737 564.33 214.791 510.043 233.303C442.844 256.298 375.021 261.597 310.777 259.122C307.397 258.977 303.986 258.802 300.542 258.598C181.622 252.345 62.4808 215.998 -20.6683 134.614" stroke="url(#paint7_linear_1760_120)" stroke-width="2" stroke-miterlimit="10"/>
<path style="mix-blend-mode:multiply" d="M1757.03 466.228C1711.89 486.903 1660.17 480.029 1614.29 462.54C1602.14 457.924 1590.48 452.704 1579.22 446.968C1548.16 431.171 1518.68 411.832 1490.29 391.202C1433.12 349.765 1380.09 303.075 1324.12 258.44C1275.7 219.769 1224.34 182.286 1168.04 152.391C1127.57 130.787 1083.55 113.315 1037.23 102.239C944.58 80.2618 847.212 85.126 759.443 118.346C721.381 132.753 685.81 152.124 651.014 172.023C601.222 200.635 552.297 230.382 497.139 248.107C428.973 270.139 360.107 271.96 295.896 265.843C292.518 265.524 289.108 265.176 285.665 264.798C166.904 251.696 50.8495 208.092 -28.0705 122.669" stroke="url(#paint8_linear_1760_120)" stroke-width="2" stroke-miterlimit="10"/>
<path style="mix-blend-mode:multiply" d="M1759.15 468.502C1714.3 490.307 1661.87 485.422 1615.01 469.485C1602.66 465.3 1590.61 460.424 1578.96 455.031C1547 440.093 1516.64 421.441 1487.47 401.324C1428.53 360.913 1374.04 314.816 1316.99 270.519C1267.59 232.099 1215.55 194.871 1158.77 164.884C1117.8 143.363 1073.49 125.801 1026.88 114.636C933.454 92.2184 835.215 96.3812 747.242 130.64C709.078 145.479 673.696 165.546 638.993 186.053C589.191 215.619 540.163 245.972 484.232 262.909C415.1 283.979 345.192 282.322 281.013 272.563C277.637 272.013 274.228 271.462 270.788 270.912C152.183 251.133 39.2163 200.185 -35.4748 110.724" stroke="url(#paint9_linear_1760_120)" stroke-width="2" stroke-miterlimit="10"/>
<path style="mix-blend-mode:multiply" d="M1761.38 470.776C1716.7 493.623 1663.68 490.814 1615.73 476.428C1603.08 472.675 1590.74 468.143 1578.79 463.094C1545.95 449.103 1514.61 430.962 1484.55 411.444C1423.95 372.058 1368.08 326.557 1309.86 282.596C1259.49 244.515 1206.86 207.454 1149.39 177.462C1108.14 155.938 1063.34 138.199 1016.43 126.945C922.329 104.174 823.218 107.635 735.041 142.933C696.873 158.206 661.582 178.967 626.874 200.081C577.162 230.515 528.128 261.562 471.424 277.712C401.228 297.732 330.278 292.683 266.13 279.282C262.691 278.558 259.284 277.805 255.911 277.024C137.365 250.482 27.5836 192.277 -42.8784 98.7773" stroke="url(#paint10_linear_1760_120)" stroke-width="2" stroke-miterlimit="10"/>
<path style="mix-blend-mode:multiply" d="M1763.5 473.136C1719.11 497.026 1665.39 496.292 1616.54 483.373C1603.51 479.962 1590.86 475.862 1578.52 471.07C1544.8 458.024 1512.58 440.569 1481.73 421.565C1419.46 383.205 1362.03 338.297 1302.73 294.761C1251.38 256.931 1198.07 219.951 1140.02 189.954C1098.47 168.427 1053.28 150.684 1006.08 139.254C911.203 116.129 811.318 118.89 722.938 155.14C684.57 170.931 649.469 192.388 614.852 214.11C565.133 245.411 516.093 277.152 458.518 292.513C387.453 311.572 315.462 302.958 251.248 286.001C247.811 285.046 244.406 284.091 241.034 283.136C122.645 249.831 15.9507 184.369 -50.1848 86.8316" stroke="url(#paint11_linear_1760_120)" stroke-width="2" stroke-miterlimit="10"/>
<path style="mix-blend-mode:multiply" d="M1765.63 475.409C1721.52 500.429 1667.09 501.683 1617.26 490.403C1604.03 487.338 1590.99 483.58 1578.35 479.133C1543.74 466.947 1510.54 450.177 1478.81 431.685C1414.88 394.351 1356.07 350.039 1295.6 306.838C1243.27 269.347 1189.28 232.534 1130.74 202.446C1088.8 181.002 1043.22 163.169 995.733 151.563C900.078 128.085 799.322 130.057 710.737 167.433C672.366 183.571 637.355 205.896 602.83 228.226C553.104 260.394 503.961 292.74 445.612 307.315C373.581 325.324 300.547 313.319 236.365 292.72C232.93 291.591 229.526 290.463 226.156 289.335C107.925 249.18 4.31829 176.461 -57.5883 74.8851" stroke="url(#paint12_linear_1760_120)" stroke-width="2" stroke-miterlimit="10"/>
<path style="mix-blend-mode:multiply" d="M1767.75 477.684C1724.03 503.835 1668.9 507.077 1617.98 497.349C1604.45 494.714 1591.12 491.301 1578.18 487.198C1542.59 475.957 1508.5 459.786 1475.99 441.808C1410.29 405.586 1350.02 361.781 1288.47 318.918C1235.17 281.764 1180.49 245.033 1121.36 215.026C1079.13 193.493 1033.16 175.657 985.385 163.874C888.953 140.042 787.325 141.314 698.535 179.728C660.064 196.299 625.241 219.319 590.711 242.256C541.075 275.292 491.926 308.332 432.707 322.119C359.709 339.165 285.632 323.682 221.484 299.355C218.049 298.11 214.647 296.808 211.279 295.449C93.2056 248.532 -7.41213 168.554 -64.9921 62.9405" stroke="url(#paint13_linear_1760_120)" stroke-width="2" stroke-miterlimit="10"/>
<path style="mix-blend-mode:multiply" d="M1769.97 479.958C1726.43 507.238 1670.61 512.555 1618.7 504.292C1604.87 502.089 1591.25 499.02 1577.92 495.26C1541.44 484.879 1506.47 469.394 1473.08 451.929C1405.71 416.733 1344.07 373.522 1281.44 330.996C1227.06 294.094 1171.8 257.617 1112.09 227.518C1069.47 206.069 1023.01 188.141 974.94 176.183C877.828 151.998 775.329 152.568 686.335 192.021C647.86 209.025 613.128 232.741 578.691 256.285C529.046 290.275 479.794 323.921 419.802 336.92C345.837 353.005 270.816 334.045 206.602 306.074C203.17 304.598 199.77 303.094 196.402 301.561C78.4867 247.881 -19.0437 160.647 -72.3955 51.081" stroke="url(#paint14_linear_1760_120)" stroke-width="2" stroke-miterlimit="10"/>
<path style="mix-blend-mode:multiply" d="M1772.1 482.231C1728.84 510.641 1672.41 518.034 1619.51 511.237C1605.29 509.464 1591.37 506.739 1577.75 503.324C1540.38 493.888 1504.43 479.002 1470.26 462.05C1401.22 427.88 1338.01 385.349 1274.31 343.161C1218.95 306.51 1163.01 270.113 1102.71 240.01C1059.7 218.557 1012.95 200.54 964.589 188.492C866.701 163.954 763.428 163.823 674.133 204.227C635.555 221.751 601.013 246.162 566.57 270.313C517.015 305.171 467.756 339.511 406.894 351.722C331.963 366.757 255.9 344.319 191.718 312.793C188.286 311.144 184.888 309.466 181.522 307.76C63.6671 247.23 -30.6794 152.825 -79.8013 39.1345" stroke="url(#paint15_linear_1760_120)" stroke-width="2" stroke-miterlimit="10"/>
<path style="mix-blend-mode:multiply" d="M1774.22 484.504C1731.25 514.044 1674.12 523.426 1620.24 518.18C1605.81 516.839 1591.5 514.458 1577.48 511.386C1539.23 502.81 1502.4 488.609 1467.34 472.17C1396.64 439.026 1332.06 397.09 1267.19 355.238C1210.85 318.925 1154.22 282.697 1093.34 252.588C1050.03 231.132 1002.9 213.025 954.243 200.802C855.675 175.91 751.433 175.077 662.031 216.521C623.352 234.478 588.901 259.583 554.551 284.342C504.987 320.154 455.626 355.1 393.99 366.524C318.092 380.596 240.988 354.68 176.837 319.512C173.408 317.69 170.011 315.81 166.647 313.872C48.9492 246.579 -42.3102 144.917 -87.1057 27.1888" stroke="url(#paint16_linear_1760_120)" stroke-width="2" stroke-miterlimit="10"/>
<path style="mix-blend-mode:multiply" d="M1776.35 486.777C1733.76 517.447 1675.92 528.818 1620.95 525.124C1566.08 521.518 1513.58 504.057 1464.52 482.291C1329.3 422.301 1216.21 329.986 1084.06 265.08C951.81 200.173 783.7 165.388 649.83 228.814C555.132 273.68 486.759 363.353 381.181 381.326C304.318 394.35 226.073 365.041 161.955 326.231C39.3422 252.217 -52.8034 140.488 -94.5094 15.2423" stroke="url(#paint17_linear_1760_120)" stroke-width="2" stroke-miterlimit="10"/>
</g>
<defs>
<linearGradient id="paint0_linear_1760_120" x1="1757.12" y1="421.827" x2="421.762" y2="-448.802" gradientUnits="userSpaceOnUse">
<stop stop-color="white"/>
<stop offset="1" stop-color="#E8E8E8"/>
</linearGradient>
<linearGradient id="paint1_linear_1760_120" x1="1754.37" y1="431.888" x2="419.318" y2="-438.539" gradientUnits="userSpaceOnUse">
<stop stop-color="white"/>
<stop offset="1" stop-color="#E8E8E8"/>
</linearGradient>
<linearGradient id="paint2_linear_1760_120" x1="1751.69" y1="441.928" x2="416.907" y2="-428.326" gradientUnits="userSpaceOnUse">
<stop stop-color="white"/>
<stop offset="1" stop-color="#E8E8E8"/>
</linearGradient>
<linearGradient id="paint3_linear_1760_120" x1="1758.38" y1="437.713" x2="413.861" y2="-438.887" gradientUnits="userSpaceOnUse">
<stop stop-color="white"/>
<stop offset="1" stop-color="#E8E8E8"/>
</linearGradient>
<linearGradient id="paint4_linear_1760_120" x1="1768.6" y1="428.181" x2="410.628" y2="-457.186" gradientUnits="userSpaceOnUse">
<stop stop-color="white"/>
<stop offset="1" stop-color="#E8E8E8"/>
</linearGradient>
<linearGradient id="paint5_linear_1760_120" x1="1778.94" y1="418.584" x2="407.463" y2="-475.591" gradientUnits="userSpaceOnUse">
<stop stop-color="white"/>
<stop offset="1" stop-color="#E8E8E8"/>
</linearGradient>
<linearGradient id="paint6_linear_1760_120" x1="1789.41" y1="408.921" x2="404.366" y2="-494.1" gradientUnits="userSpaceOnUse">
<stop stop-color="white"/>
<stop offset="1" stop-color="#E8E8E8"/>
</linearGradient>
<linearGradient id="paint7_linear_1760_120" x1="1800.02" y1="399.191" x2="401.339" y2="-512.719" gradientUnits="userSpaceOnUse">
<stop stop-color="white"/>
<stop offset="1" stop-color="#E8E8E8"/>
</linearGradient>
<linearGradient id="paint8_linear_1760_120" x1="1810.77" y1="389.395" x2="398.389" y2="-531.449" gradientUnits="userSpaceOnUse">
<stop stop-color="white"/>
<stop offset="1" stop-color="#E8E8E8"/>
</linearGradient>
<linearGradient id="paint9_linear_1760_120" x1="1821.67" y1="379.531" x2="395.511" y2="-550.295" gradientUnits="userSpaceOnUse">
<stop stop-color="white"/>
<stop offset="1" stop-color="#E8E8E8"/>
</linearGradient>
<linearGradient id="paint10_linear_1760_120" x1="1832.74" y1="369.6" x2="392.715" y2="-569.265" gradientUnits="userSpaceOnUse">
<stop stop-color="white"/>
<stop offset="1" stop-color="#E8E8E8"/>
</linearGradient>
<linearGradient id="paint11_linear_1760_120" x1="1843.98" y1="359.6" x2="390.002" y2="-588.365" gradientUnits="userSpaceOnUse">
<stop stop-color="white"/>
<stop offset="1" stop-color="#E8E8E8"/>
</linearGradient>
<linearGradient id="paint12_linear_1760_120" x1="1855.4" y1="349.531" x2="387.374" y2="-607.591" gradientUnits="userSpaceOnUse">
<stop stop-color="white"/>
<stop offset="1" stop-color="#E8E8E8"/>
</linearGradient>
<linearGradient id="paint13_linear_1760_120" x1="1867.01" y1="339.394" x2="384.835" y2="-626.958" gradientUnits="userSpaceOnUse">
<stop stop-color="white"/>
<stop offset="1" stop-color="#E8E8E8"/>
</linearGradient>
<linearGradient id="paint14_linear_1760_120" x1="1878.84" y1="329.184" x2="382.395" y2="-646.472" gradientUnits="userSpaceOnUse">
<stop stop-color="white"/>
<stop offset="1" stop-color="#E8E8E8"/>
</linearGradient>
<linearGradient id="paint15_linear_1760_120" x1="1890.87" y1="318.899" x2="380.045" y2="-666.129" gradientUnits="userSpaceOnUse">
<stop stop-color="white"/>
<stop offset="1" stop-color="#E8E8E8"/>
</linearGradient>
<linearGradient id="paint16_linear_1760_120" x1="1903.12" y1="308.538" x2="377.797" y2="-685.939" gradientUnits="userSpaceOnUse">
<stop stop-color="white"/>
<stop offset="1" stop-color="#E8E8E8"/>
</linearGradient>
<linearGradient id="paint17_linear_1760_120" x1="1915.58" y1="298.1" x2="375.65" y2="-705.906" gradientUnits="userSpaceOnUse">
<stop stop-color="white"/>
<stop offset="1" stop-color="#E8E8E8"/>
</linearGradient>
</defs>
</svg>
