<svg width="194" height="278" viewBox="0 0 194 278" fill="none" xmlns="http://www.w3.org/2000/svg">
<path d="M171.234 272.247L171.225 276.976L175.852 276.984L175.86 272.256L171.234 272.247Z" fill="#B5B5B5"/>
<path d="M171.265 255.331L171.257 259.954L175.883 259.962L175.891 255.339L171.265 255.331Z" fill="#B5B5B5"/>
<path d="M171.296 238.308L171.288 242.931L175.914 242.94L175.923 238.317L171.296 238.308Z" fill="#B5B5B5"/>
<path d="M154.087 276.944L158.713 276.952L158.722 272.224L154.095 272.215L154.087 276.944Z" fill="#B5B5B5"/>
<path d="M137.056 276.912L141.787 276.921L141.796 272.193L137.064 272.184L137.056 276.912Z" fill="#B5B5B5"/>
<path d="M120.021 276.881L124.752 276.89L124.761 272.161L120.029 272.153L120.021 276.881Z" fill="#B5B5B5"/>
<path d="M103.092 276.85L107.719 276.858L107.727 272.13L103.101 272.121L103.092 276.85Z" fill="#B5B5B5"/>
<path d="M86.0593 276.818L90.6855 276.827L90.6943 272.098L86.068 272.09L86.0593 276.818Z" fill="#B5B5B5"/>
<path d="M154.12 259.922L158.746 259.931L158.755 255.307L154.128 255.299L154.12 259.922Z" fill="#B5B5B5"/>
<path d="M137.087 259.891L141.818 259.899L141.827 255.276L137.095 255.267L137.087 259.891Z" fill="#B5B5B5"/>
<path d="M120.054 259.859L124.785 259.868L124.794 255.245L120.062 255.236L120.054 259.859Z" fill="#B5B5B5"/>
<path d="M103.126 259.828L107.752 259.836L107.76 255.213L103.134 255.205L103.126 259.828Z" fill="#B5B5B5"/>
<path d="M86.0925 259.796L90.7188 259.805L90.7273 255.182L86.101 255.173L86.0925 259.796Z" fill="#B5B5B5"/>
<path d="M154.151 242.9L158.777 242.908L158.786 238.285L154.16 238.276L154.151 242.9Z" fill="#B5B5B5"/>
<path d="M137.116 242.868L141.848 242.877L141.856 238.254L137.125 238.245L137.116 242.868Z" fill="#B5B5B5"/>
<path d="M120.085 242.837L124.816 242.845L124.825 238.222L120.094 238.213L120.085 242.837Z" fill="#B5B5B5"/>
<path d="M103.157 242.805L107.783 242.814L107.792 238.191L103.165 238.182L103.157 242.805Z" fill="#B5B5B5"/>
<path d="M86.1237 242.774L90.75 242.782L90.7585 238.159L86.1323 238.151L86.1237 242.774Z" fill="#B5B5B5"/>
<path d="M69.026 276.787L73.6523 276.795L73.6611 272.067L69.0348 272.058L69.026 276.787Z" fill="#B5B5B5"/>
<path d="M51.9951 276.755L56.7266 276.764L56.7353 272.036L52.0039 272.027L51.9951 276.755Z" fill="#B5B5B5"/>
<path d="M34.9619 276.724L39.6934 276.732L39.7021 272.004L34.9707 271.995L34.9619 276.724Z" fill="#B5B5B5"/>
<path d="M18.0319 276.692L22.6582 276.701L22.6669 271.973L18.0407 271.964L18.0319 276.692Z" fill="#B5B5B5"/>
<path d="M69.0573 259.765L73.6836 259.773L73.6921 255.15L69.0658 255.142L69.0573 259.765Z" fill="#B5B5B5"/>
<path d="M52.0264 259.733L56.7578 259.742L56.7664 255.119L52.0349 255.11L52.0264 259.733Z" fill="#B5B5B5"/>
<path d="M34.9932 259.702L39.7246 259.711L39.7332 255.087L35.0017 255.079L34.9932 259.702Z" fill="#B5B5B5"/>
<path d="M0.998696 276.661L5.625 276.669L5.63374 271.941L1.00744 271.933L0.998696 276.661Z" fill="#B5B5B5"/>
<path d="M69.0905 242.742L73.7168 242.751L73.7253 238.128L69.099 238.119L69.0905 242.742Z" fill="#B5B5B5"/>
<path d="M188.153 277.007L192.885 277.016L192.894 272.287L188.162 272.279L188.153 277.007Z" fill="#B5B5B5"/>
<path d="M188.185 259.985L192.916 259.994L192.925 255.371L188.193 255.362L188.185 259.985Z" fill="#B5B5B5"/>
<path d="M188.216 242.963L192.947 242.971L192.956 238.348L188.224 238.339L188.216 242.963Z" fill="#B5B5B5"/>
<path d="M171.328 221.286L171.319 226.014L175.945 226.023L175.954 221.295L171.328 221.286Z" fill="#B5B5B5"/>
<path d="M171.361 204.264L171.352 208.992L175.979 209.001L175.987 204.273L171.361 204.264Z" fill="#B5B5B5"/>
<path d="M154.182 225.983L158.809 225.991L158.817 221.263L154.191 221.254L154.182 225.983Z" fill="#B5B5B5"/>
<path d="M137.147 225.951L141.879 225.96L141.888 221.232L137.156 221.223L137.147 225.951Z" fill="#B5B5B5"/>
<path d="M120.114 225.92L124.846 225.928L124.854 221.2L120.123 221.191L120.114 225.92Z" fill="#B5B5B5"/>
<path d="M120.114 225.92L124.846 225.928L124.854 221.2L120.123 221.191L120.114 225.92Z" fill="#B5B5B5"/>
<path d="M103.188 225.888L107.814 225.897L107.823 221.169L103.197 221.16L103.188 225.888Z" fill="#B5B5B5"/>
<path d="M154.214 208.961L158.84 208.969L158.849 204.241L154.222 204.233L154.214 208.961Z" fill="#B5B5B5"/>
<path d="M188.249 226.046L192.98 226.054L192.989 221.326L188.258 221.317L188.249 226.046Z" fill="#B5B5B5"/>
<path d="M188.28 209.024L193.012 209.032L193.02 204.304L188.289 204.295L188.28 209.024Z" fill="#B5B5B5"/>
<path d="M171.392 187.347L171.383 191.97L176.01 191.979L176.018 187.355L171.392 187.347Z" fill="#B5B5B5"/>
<path d="M171.423 170.325L171.415 174.948L176.041 174.957L176.05 170.334L171.423 170.325Z" fill="#B5B5B5"/>
<path d="M154.243 191.938L158.869 191.947L158.878 187.324L154.251 187.315L154.243 191.938Z" fill="#B5B5B5"/>
<path d="M154.278 174.917L158.904 174.925L158.913 170.302L154.287 170.293L154.278 174.917Z" fill="#B5B5B5"/>
<path d="M188.312 192.002L193.043 192.01L193.052 187.387L188.32 187.378L188.312 192.002Z" fill="#B5B5B5"/>
<path d="M188.343 174.98L193.074 174.988L193.083 170.365L188.351 170.356L188.343 174.98Z" fill="#B5B5B5"/>
<path d="M171.455 153.303L171.446 157.926L176.072 157.935L176.081 153.311L171.455 153.303Z" fill="#B5B5B5"/>
<path d="M171.484 136.281L171.475 141.009L176.102 141.018L176.11 136.289L171.484 136.281Z" fill="#B5B5B5"/>
<path d="M154.309 157.894L158.936 157.903L158.944 153.28L154.318 153.271L154.309 157.894Z" fill="#B5B5B5"/>
<path d="M154.339 140.977L158.965 140.986L158.974 136.257L154.347 136.249L154.339 140.977Z" fill="#B5B5B5"/>
<path d="M188.372 157.957L193.104 157.966L193.112 153.343L188.381 153.334L188.372 157.957Z" fill="#B5B5B5"/>
<path d="M188.407 141.04L193.139 141.049L193.147 136.321L188.416 136.312L188.407 141.04Z" fill="#B5B5B5"/>
<path d="M171.519 119.259L171.51 123.987L176.137 123.996L176.145 119.267L171.519 119.259Z" fill="#B5B5B5"/>
<path d="M171.548 102.342L171.54 106.965L176.166 106.973L176.175 102.35L171.548 102.342Z" fill="#B5B5B5"/>
<path d="M154.37 123.955L158.996 123.964L159.005 119.236L154.379 119.227L154.37 123.955Z" fill="#B5B5B5"/>
<path d="M154.401 106.933L159.027 106.942L159.036 102.318L154.41 102.31L154.401 106.933Z" fill="#B5B5B5"/>
<path d="M188.437 124.018L193.168 124.027L193.177 119.299L188.445 119.29L188.437 124.018Z" fill="#B5B5B5"/>
<path d="M188.468 106.996L193.199 107.005L193.208 102.381L188.476 102.373L188.468 106.996Z" fill="#B5B5B5"/>
<path d="M171.58 85.3196L171.571 89.9429L176.197 89.9514L176.206 85.3281L171.58 85.3196Z" fill="#B5B5B5"/>
<path d="M171.611 68.2975L171.602 73.0259L176.229 73.0344L176.237 68.3061L171.611 68.2975Z" fill="#B5B5B5"/>
<path d="M154.432 89.9114L159.059 89.9199L159.067 85.2966L154.441 85.2881L154.432 89.9114Z" fill="#B5B5B5"/>
<path d="M188.499 89.9742L193.23 89.9829L193.239 85.3596L188.508 85.3509L188.499 89.9742Z" fill="#B5B5B5"/>
<path d="M188.53 73.0572L193.262 73.0659L193.27 68.3376L188.539 68.3288L188.53 73.0572Z" fill="#B5B5B5"/>
<path d="M171.642 51.2753L171.633 56.0037L176.26 56.0122L176.269 51.2839L171.642 51.2753Z" fill="#B5B5B5"/>
<path d="M171.675 34.3584L171.667 38.9817L176.293 38.9902L176.302 34.367L171.675 34.3584Z" fill="#B5B5B5"/>
<path d="M188.563 56.0347L193.295 56.0435L193.304 51.3151L188.572 51.3064L188.563 56.0347Z" fill="#B5B5B5"/>
<path d="M188.595 39.013L193.326 39.0217L193.335 34.3985L188.603 34.3897L188.595 39.013Z" fill="#B5B5B5"/>
<path d="M188.626 21.9905L193.357 21.9993L193.366 17.376L188.635 17.3672L188.626 21.9905Z" fill="#B5B5B5"/>
<path d="M188.657 5.07426L193.389 5.08301L193.397 0.354653L188.666 0.345908L188.657 5.07426Z" fill="#B5B5B5"/>
</svg>
