<svg width="31" height="31" viewBox="0 0 31 31" fill="none" xmlns="http://www.w3.org/2000/svg">
<path d="M9.26182 14.4968C8.83758 14.0726 8.14818 14.0726 7.72394 14.4968C7.2997 14.921 7.2997 15.6104 7.72394 16.0347L12.7353 21.046C12.9474 21.2581 13.2126 21.3642 13.5042 21.3642C13.5307 21.3642 13.5307 21.3642 13.5573 21.3642C13.8489 21.3377 14.1406 21.2051 14.3527 20.9665L26.8943 5.93243C27.2655 5.48167 27.2125 4.79228 26.7618 4.39456C26.311 4.02335 25.6216 4.07638 25.2239 4.52713L13.4247 18.6597L9.26182 14.4968Z" fill="#E94FCA"/>
<path d="M23.739 2.35299C17.6405 -1.46518 9.8186 -0.563665 4.7277 4.52723C-1.2647 10.5196 -1.2647 20.3037 4.7277 26.2961C7.72391 29.2923 11.6747 30.8037 15.5989 30.8037C19.5231 30.8037 23.4739 29.2923 26.4701 26.2961C31.5875 21.1787 32.4625 13.3302 28.6178 7.23177C28.2996 6.72798 27.6367 6.56889 27.1329 6.88707C26.6292 7.20525 26.4701 7.86813 26.7882 8.37191C30.1026 13.6219 29.3337 20.3567 24.9322 24.7582C19.7883 29.9022 11.383 29.9022 6.23906 24.7582C1.09514 19.6143 1.09514 11.209 6.23906 6.0651C10.6406 1.69012 17.3489 0.921179 22.5989 4.18253C23.1026 4.50071 23.7655 4.34162 24.0837 3.83784C24.4019 3.33405 24.2428 2.67117 23.739 2.35299Z" fill="#330C79"/>
</svg>
